<?xml version="1.0" encoding="UTF-8" standalone="no"?>
<svg width="48" height="48" viewBox="0 0 13.608326 13.598711" version="1.1" id="svg1" xmlns="http://www.w3.org/2000/svg">
    <path d="M 6.1376014,9.2521251 5.7233435,8.1260814 c 0,0 -0.6731567,0.7507618 -1.6826188,0.7507618 -0.8932777,0 -1.5274086,-0.7766465 -1.5274086,-2.0192715 0,-1.5920712 0.8024324,-2.161589 1.5920714,-2.161589 1.138986,0 1.5013748,0.7377697 1.812093,1.6827181 l 0.4142579,1.2944443 c 0.4141092,1.2554183 1.1907558,2.2650794 3.4299999,2.2650794 1.6051617,0 2.6923787,-0.4918142 2.6923787,-1.7862084 0,-1.0484385 -0.595502,-1.5920713 -1.708702,-1.8510198 L 9.9170477,6.1198516 C 9.3475793,5.990427 9.1793274,5.7573634 9.1793274,5.3690897 c 0,-0.4400932 0.3493966,-0.698992 0.9190136,-0.698992 0.621238,0 0.957742,0.2330138 1.009562,0.7895892 l 1.294395,-0.1553591 c -0.10354,-1.1649205 -0.906022,-1.6438411 -2.226302,-1.6438411 -1.1648709,0 -2.303956,0.4400932 -2.303956,1.85097 0,0.8801864 0.4271506,1.4368113 1.5013748,1.6956605 l 0.8802852,0.20703 c 0.660116,0.155359 0.880087,0.4271506 0.880087,0.8026307 0,0.478821 -0.465928,0.6730074 -1.3461146,0.6730074 -1.3072875,0 -1.8508706,-0.6859994 -2.1615889,-1.6309974 L 7.1989329,5.9644925 C 6.6553991,4.2817743 5.7881053,3.6604867 4.0665105,3.6604867 c -1.9026904,0 -2.9123014,1.2037479 -2.9123014,3.2488549 0,1.9675016 1.009611,3.0288331 2.8218529,3.0288331 1.4624483,-4.98e-5 2.1615394,-0.6860496 2.1615394,-0.6860496 z" id="path1" style="fill:#aeacfe;stroke-width:0.049588" transform="matrix(1.2042865,0,0,1.2042865,-1.3899984,-1.3890163)" />
</svg>